solid ceiling
facet normal 0 0 1
outer loop
vertex 0.07500000298023224 2.924999952316284 2.5
vertex 0.07500000298023224 0.07500000298023224 2.5
vertex 3.924999952316284 0.07500000298023224 2.5
endloop
endfacet
facet normal 0 0 1
outer loop
vertex 0.07500000298023224 2.924999952316284 2.5
vertex 3.924999952316284 0.07500000298023224 2.5
vertex 3.924999952316284 2.924999952316284 2.5
endloop
endfacet
endsolid ceiling
solid floor
facet normal 0 0 -1
outer loop
vertex 3.924999952316284 2.924999952316284 0
vertex 0.07500000298023224 0.07500000298023224 0
vertex 0.07500000298023224 2.924999952316284 0
endloop
endfacet
facet normal 0 0 -1
outer loop
vertex 0.07500000298023224 0.07500000298023224 0
vertex 3.924999952316284 2.924999952316284 0
vertex 3.924999952316284 0.07500000298023224 0
endloop
endfacet
endsolid floor
solid walls
facet normal 0 -1 0
outer loop
vertex 0.07500000298023224 0.07500000298023224 0
vertex 3.924999952316284 0.07500000298023224 0
vertex 0.07500000298023224 0.07500000298023224 2.5
endloop
endfacet
facet normal 0 -1 0
outer loop
vertex 3.924999952316284 0.07500000298023224 2.5
vertex 0.07500000298023224 0.07500000298023224 2.5
vertex 3.924999952316284 0.07500000298023224 0
endloop
endfacet
facet normal 1 0 0
outer loop
vertex 3.924999952316284 0.07500000298023224 2.5
vertex 3.924999952316284 0.07500000298023224 0
vertex 3.924999952316284 2.924999952316284 2.5
endloop
endfacet
facet normal 1 0 0
outer loop
vertex 3.924999952316284 2.924999952316284 0
vertex 3.924999952316284 2.924999952316284 2.5
vertex 3.924999952316284 0.07500000298023224 0
endloop
endfacet
facet normal 0 1 0
outer loop
vertex 0.07500000298023224 2.924999952316284 2.5
vertex 3.924999952316284 2.924999952316284 2.5
vertex 0.07500000298023224 2.924999952316284 0
endloop
endfacet
facet normal 0 1 0
outer loop
vertex 3.924999952316284 2.924999952316284 0
vertex 0.07500000298023224 2.924999952316284 0
vertex 3.924999952316284 2.924999952316284 2.5
endloop
endfacet
facet normal -1 0 0
outer loop
vertex 0.07500000298023224 0.07500000298023224 0
vertex 0.07500000298023224 0.07500000298023224 2.5
vertex 0.07500000298023224 2.924999952316284 0
endloop
endfacet
facet normal -1 0 0
outer loop
vertex 0.07500000298023224 2.924999952316284 2.5
vertex 0.07500000298023224 2.924999952316284 0
vertex 0.07500000298023224 0.07500000298023224 2.5
endloop
endfacet
endsolid walls
